<svg xmlns="http://www.w3.org/2000/svg" xmlns:xlink="http://www.w3.org/1999/xlink" width="700" zoomAndPan="magnify" viewBox="0 38 525 115" height="300" preserveAspectRatio="xMidYMid meet" version="1.0">
<defs>
<g/>
<clipPath id="81d3c88479"><path d="M 0 44 L 78 44 L 78 148 L 0 148 Z M 0 44 " clip-rule="nonzero"/></clipPath>
<clipPath id="19e7a3cba2"><path d="M 477 73 L 525 73 L 525 148 L 477 148 Z M 477 73 " clip-rule="nonzero"/></clipPath>
<clipPath id="746104231f"><rect x="0" width="525" y="0" height="200"/></clipPath>
</defs>
<g transform="matrix(1, 0, 0, 1, 0, 5)">
<g clip-path="url(#746104231f)">
<g clip-path="url(#81d3c88479)">
<g fill="#000000" fill-opacity="1">
<g transform="translate(-15.734163, 147.601909)">
<g><path d="M 12.421875 0 L 12.421875 -102.984375 L 58 -102.984375 C 65.59375 -102.984375 72.039062 -101.71875 77.34375 -99.1875 C 82.65625 -96.65625 86.695312 -92.976562 89.46875 -88.15625 C 92.25 -83.332031 93.640625 -77.515625 93.640625 -70.703125 C 93.640625 -64.078125 92.25 -58.328125 89.46875 -53.453125 C 86.695312 -48.585938 82.65625 -44.835938 77.34375 -42.203125 C 72.039062 -39.578125 65.59375 -38.265625 58 -38.265625 L 31.703125 -38.265625 L 31.703125 0 Z M 31.703125 -53.609375 L 54.921875 -53.609375 C 61.453125 -53.609375 66.394531 -55.019531 69.75 -57.84375 C 73.113281 -60.664062 74.796875 -64.953125 74.796875 -70.703125 C 74.796875 -76.347656 73.113281 -80.554688 69.75 -83.328125 C 66.394531 -86.109375 61.453125 -87.5 54.921875 -87.5 L 31.703125 -87.5 Z M 31.703125 -53.609375 "/></g>
</g>
</g>
</g>
<g fill="#000000" fill-opacity="1">
<g transform="translate(83.29653, 147.601909)">
<g><path d="M 9.0625 -87.0625 L 9.0625 -105.765625 L 30.53125 -105.765625 L 30.53125 -87.0625 Z M 10.375 0 L 10.375 -72.15625 L 29.359375 -72.15625 L 29.359375 0 Z M 10.375 0 "/></g>
</g>
</g>
<g fill="#000000" fill-opacity="1">
<g transform="translate(123.025659, 147.601909)">
<g><path d="M 43.828125 1.453125 C 36.222656 1.453125 29.617188 -0.078125 24.015625 -3.140625 C 18.421875 -6.203125 14.085938 -10.554688 11.015625 -16.203125 C 7.953125 -21.859375 6.421875 -28.484375 6.421875 -36.078125 C 6.421875 -43.773438 7.953125 -50.421875 11.015625 -56.015625 C 14.085938 -61.617188 18.421875 -65.953125 24.015625 -69.015625 C 29.617188 -72.085938 36.222656 -73.625 43.828125 -73.625 C 51.515625 -73.625 58.132812 -72.085938 63.6875 -69.015625 C 69.238281 -65.953125 73.546875 -61.59375 76.609375 -55.9375 C 79.679688 -50.289062 81.21875 -43.671875 81.21875 -36.078125 C 81.21875 -28.484375 79.679688 -21.859375 76.609375 -16.203125 C 73.546875 -10.554688 69.238281 -6.203125 63.6875 -3.140625 C 58.132812 -0.078125 51.515625 1.453125 43.828125 1.453125 Z M 43.828125 -13.4375 C 49.566406 -13.4375 54.09375 -15.40625 57.40625 -19.34375 C 60.71875 -23.289062 62.375 -28.921875 62.375 -36.234375 C 62.375 -43.535156 60.71875 -49.109375 57.40625 -52.953125 C 54.09375 -56.796875 49.566406 -58.71875 43.828125 -58.71875 C 38.171875 -58.71875 33.660156 -56.796875 30.296875 -52.953125 C 26.941406 -49.109375 25.265625 -43.535156 25.265625 -36.234375 C 25.265625 -28.921875 26.941406 -23.289062 30.296875 -19.34375 C 33.660156 -15.40625 38.171875 -13.4375 43.828125 -13.4375 Z M 43.828125 -13.4375 "/></g>
</g>
</g>
<g fill="#000000" fill-opacity="1">
<g transform="translate(210.663441, 147.601909)">
<g><path d="M 10.375 0 L 10.375 -72.15625 L 28.34375 -72.15625 L 28.34375 -57.5625 L 27.609375 -57.5625 C 29.847656 -62.71875 33.253906 -66.679688 37.828125 -69.453125 C 42.410156 -72.234375 47.570312 -73.625 53.3125 -73.625 C 59.15625 -73.625 64.023438 -72.523438 67.921875 -70.328125 C 71.816406 -68.140625 74.738281 -64.804688 76.6875 -60.328125 C 78.632812 -55.847656 79.609375 -50.203125 79.609375 -43.390625 L 79.609375 0 L 60.625 0 L 60.625 -42.515625 C 60.625 -46.109375 60.160156 -49.070312 59.234375 -51.40625 C 58.304688 -53.75 56.867188 -55.503906 54.921875 -56.671875 C 52.972656 -57.847656 50.441406 -58.4375 47.328125 -58.4375 C 43.828125 -58.4375 40.710938 -57.65625 37.984375 -56.09375 C 35.253906 -54.53125 33.132812 -52.335938 31.625 -49.515625 C 30.113281 -46.691406 29.359375 -43.476562 29.359375 -39.875 L 29.359375 0 Z M 10.375 0 "/></g>
</g>
</g>
<g fill="#000000" fill-opacity="1">
<g transform="translate(300.346116, 147.601909)">
<g><path d="M 47.1875 1.453125 C 38.613281 1.453125 31.28125 -0.0507812 25.1875 -3.0625 C 19.101562 -6.082031 14.453125 -10.414062 11.234375 -16.0625 C 8.023438 -21.71875 6.421875 -28.390625 6.421875 -36.078125 C 6.421875 -43.378906 7.953125 -49.832031 11.015625 -55.4375 C 14.085938 -61.039062 18.398438 -65.472656 23.953125 -68.734375 C 29.503906 -71.992188 35.984375 -73.625 43.390625 -73.625 C 50.296875 -73.625 56.28125 -72.140625 61.34375 -69.171875 C 66.414062 -66.203125 70.335938 -61.960938 73.109375 -56.453125 C 75.890625 -50.953125 77.28125 -44.40625 77.28125 -36.8125 L 77.28125 -31.109375 L 21.625 -31.109375 L 21.625 -42.359375 L 63.84375 -42.359375 L 61.5 -40.03125 C 61.5 -46.75 59.960938 -51.832031 56.890625 -55.28125 C 53.828125 -58.738281 49.472656 -60.46875 43.828125 -60.46875 C 39.828125 -60.46875 36.363281 -59.566406 33.4375 -57.765625 C 30.519531 -55.972656 28.257812 -53.421875 26.65625 -50.109375 C 25.050781 -46.796875 24.25 -42.753906 24.25 -37.984375 L 24.25 -36.515625 C 24.25 -31.160156 25.125 -26.753906 26.875 -23.296875 C 28.625 -19.835938 31.253906 -17.28125 34.765625 -15.625 C 38.273438 -13.96875 42.5625 -13.140625 47.625 -13.140625 C 51.519531 -13.140625 55.488281 -13.675781 59.53125 -14.75 C 63.570312 -15.820312 67.25 -17.625 70.5625 -20.15625 L 75.8125 -7.296875 C 72.207031 -4.472656 67.800781 -2.304688 62.59375 -0.796875 C 57.382812 0.703125 52.25 1.453125 47.1875 1.453125 Z M 47.1875 1.453125 "/></g>
</g>
</g>
<g fill="#000000" fill-opacity="1">
<g transform="translate(383.748055, 147.601909)">
<g><path d="M 47.1875 1.453125 C 38.613281 1.453125 31.28125 -0.0507812 25.1875 -3.0625 C 19.101562 -6.082031 14.453125 -10.414062 11.234375 -16.0625 C 8.023438 -21.71875 6.421875 -28.390625 6.421875 -36.078125 C 6.421875 -43.378906 7.953125 -49.832031 11.015625 -55.4375 C 14.085938 -61.039062 18.398438 -65.472656 23.953125 -68.734375 C 29.503906 -71.992188 35.984375 -73.625 43.390625 -73.625 C 50.296875 -73.625 56.28125 -72.140625 61.34375 -69.171875 C 66.414062 -66.203125 70.335938 -61.960938 73.109375 -56.453125 C 75.890625 -50.953125 77.28125 -44.40625 77.28125 -36.8125 L 77.28125 -31.109375 L 21.625 -31.109375 L 21.625 -42.359375 L 63.84375 -42.359375 L 61.5 -40.03125 C 61.5 -46.75 59.960938 -51.832031 56.890625 -55.28125 C 53.828125 -58.738281 49.472656 -60.46875 43.828125 -60.46875 C 39.828125 -60.46875 36.363281 -59.566406 33.4375 -57.765625 C 30.519531 -55.972656 28.257812 -53.421875 26.65625 -50.109375 C 25.050781 -46.796875 24.25 -42.753906 24.25 -37.984375 L 24.25 -36.515625 C 24.25 -31.160156 25.125 -26.753906 26.875 -23.296875 C 28.625 -19.835938 31.253906 -17.28125 34.765625 -15.625 C 38.273438 -13.96875 42.5625 -13.140625 47.625 -13.140625 C 51.519531 -13.140625 55.488281 -13.675781 59.53125 -14.75 C 63.570312 -15.820312 67.25 -17.625 70.5625 -20.15625 L 75.8125 -7.296875 C 72.207031 -4.472656 67.800781 -2.304688 62.59375 -0.796875 C 57.382812 0.703125 52.25 1.453125 47.1875 1.453125 Z M 47.1875 1.453125 "/></g>
</g>
</g>
<g clip-path="url(#19e7a3cba2)">
<g fill="#000000" fill-opacity="1">
<g transform="translate(467.149994, 147.601909)">
<g><path d="M 10.375 0 L 10.375 -72.15625 L 28.046875 -72.15625 L 28.046875 -72.15625 L 50 -72.15625 L 50 -58 L 28.046875 -58 L 28.046875 0 Z M 10.375 0 "/></g>
</g>
</g>
</g>
</g>
</g>
</svg>

